<svg xmlns="http://www.w3.org/2000/svg" viewBox="0 0 640 360" role="img" aria-label="smart foods matrix">
  <defs>
    <linearGradient id="plate" x1="0" x2="1">
      <stop offset="0" stop-color="#ffd0c4"/>
      <stop offset=".48" stop-color="#ff8f2f"/>
      <stop offset="1" stop-color="#8cffb2"/>
    </linearGradient>
  </defs>
  <rect width="640" height="360" rx="26" fill="#160e13"/>
  <g stroke="#ffd0c4" stroke-opacity=".14">
    <path d="M40 70h560M40 145h560M40 220h560M40 295h560"/>
    <path d="M110 35v290M220 35v290M330 35v290M440 35v290M550 35v290"/>
  </g>
  <circle cx="320" cy="180" r="116" fill="none" stroke="url(#plate)" stroke-width="16"/>
  <circle cx="320" cy="180" r="78" fill="#211116" stroke="#72f2df" stroke-opacity=".5"/>
  <g>
    <circle cx="265" cy="156" r="24" fill="#8cffb2"/>
    <circle cx="330" cy="138" r="20" fill="#ffd27a"/>
    <circle cx="373" cy="187" r="26" fill="#ff8f2f"/>
    <rect x="275" y="206" width="92" height="30" rx="15" fill="#ffd0c4"/>
    <path d="M244 230c34 24 112 26 154 0" stroke="#72f2df" stroke-width="9" fill="none" stroke-linecap="round"/>
  </g>
  <g font-family="Arial, sans-serif" font-size="22" font-weight="700">
    <text x="62" y="92" fill="#ffd0c4">Protein</text>
    <text x="472" y="92" fill="#72f2df">Fiber</text>
    <text x="60" y="294" fill="#ff8f2f">Fuel</text>
    <text x="452" y="294" fill="#ffd27a">Recovery</text>
  </g>
  <g fill="none" stroke-linecap="round" stroke-width="6">
    <path d="M156 98l92 54" stroke="#ffd0c4"/>
    <path d="M482 98l-98 44" stroke="#72f2df"/>
    <path d="M140 276l116-58" stroke="#ff8f2f"/>
    <path d="M470 276l-92-58" stroke="#ffd27a"/>
  </g>
</svg>
